<?xml version="1.0" encoding="utf-8"?>
<!-- Svg Vector Icons : http://www.onlinewebfonts.com/icon -->
<!DOCTYPE svg PUBLIC "-//W3C//DTD SVG 1.1//EN" "http://www.w3.org/Graphics/SVG/1.1/DTD/svg11.dtd">
<svg version="1.1" xmlns="http://www.w3.org/2000/svg" xmlns:xlink="http://www.w3.org/1999/xlink" x="0px" y="0px" viewBox="0 0 1000 1000" enable-background="new 0 0 1000 1000" xml:space="preserve">
<metadata> Svg Vector Icons : http://www.onlinewebfonts.com/icon </metadata>
<g><g><path d="M924.3,254C880.5,179,821,119.5,746,75.7C670.9,31.9,588.9,10,500,10c-88.9,0-170.9,21.9-246,65.7C179,119.5,119.5,179,75.7,254C31.9,329.1,10,411.1,10,500c0,88.9,21.9,170.9,65.7,246C119.5,821,179,880.5,254,924.3c75.1,43.8,157.1,65.7,246,65.7s170.9-21.9,246-65.7C821,880.5,880.5,821,924.3,746c43.8-75.1,65.7-157.1,65.7-246C990,411.1,968.1,329.1,924.3,254z M581.7,806.3c0,5.9-1.9,10.8-5.8,14.7c-3.8,3.8-8.7,5.7-14.7,5.7H438.8c-6,0-10.8-1.9-14.7-5.7c-3.8-3.8-5.7-8.7-5.7-14.7V683.7c0-5.9,1.9-10.8,5.7-14.7c3.8-3.8,8.7-5.7,14.7-5.7h122.5c5.9,0,10.8,1.9,14.7,5.7c3.8,3.8,5.8,8.7,5.8,14.7V806.3z M737,429.2c-5.3,15.7-11.3,28.6-17.9,38.6c-6.6,10-16.1,20.2-28.4,30.6c-12.3,10.4-22.1,17.9-29.4,22.3c-7.2,4.5-17.7,10.5-31.2,18.2c-14,8.1-25.6,18.6-34.8,31.6c-9.1,13-13.7,23.5-13.7,31.6c0,6-1.9,10.9-5.8,14.7c-3.8,3.8-8.7,5.7-14.7,5.7H438.8c-6,0-10.8-1.9-14.7-5.7c-3.8-3.8-5.7-8.7-5.7-14.7v-23c0-28.5,11.2-55.2,33.5-80.1c22.3-24.9,46.9-43.3,73.7-55.2c20.4-9.4,34.9-18.9,43.4-28.7c8.5-9.8,12.8-22.8,12.8-38.9c0-14-8-26.6-23.9-37.7c-16-11.1-34.1-16.6-54.5-16.6c-22.1,0-40.4,5.1-54.9,15.3c-14,10.2-32.3,29.8-54.9,58.7c-3.8,5.1-9.1,7.7-16,7.7c-5.1,0-9.1-1.3-12.1-3.8L281.2,336c-9.8-7.7-11.5-16.6-5.1-26.8c54.5-90.6,133.4-135.9,236.7-135.9c37,0,73.2,8.7,108.5,26.2c35.3,17.4,64.8,42.1,88.4,74c23.6,31.9,35.4,66.6,35.4,104C745,396.2,742.3,413.4,737,429.2z"/></g><g></g><g></g><g></g><g></g><g></g><g></g><g></g><g></g><g></g><g></g><g></g><g></g><g></g><g></g><g></g></g>
</svg>