<?xml version="1.0" encoding="utf-8"?>
<!-- Svg Vector Icons : http://www.onlinewebfonts.com/icon -->
<!DOCTYPE svg PUBLIC "-//W3C//DTD SVG 1.1//EN" "http://www.w3.org/Graphics/SVG/1.1/DTD/svg11.dtd">
<svg version="1.1" xmlns="http://www.w3.org/2000/svg" xmlns:xlink="http://www.w3.org/1999/xlink" x="0px" y="0px" viewBox="0 0 1000 1000" enable-background="new 0 0 1000 1000" xml:space="preserve">
<metadata> Svg Vector Icons : http://www.onlinewebfonts.com/icon </metadata>
<g><g><g><path d="M321.7,32.3H99.2c-24.7,0-44.7,19.8-44.7,44.5V255h890.9v-89.1c0-24.6-20-44.5-44.5-44.5H366.4V76.8C366.4,52.2,346.9,32.3,321.7,32.3z"/><polygon points="900.9,967.7 900.9,878.6 990,878.6 990,789.5 900.9,789.5 900.9,700.5 811.8,700.5 811.8,789.5 722.7,789.5 722.7,878.6 811.8,878.6 811.8,967.7 "/><path d="M10,344.4v578.4c0,24.8,19.6,44.9,44.6,44.9h683.9c-37-32.7-60.3-80.4-60.3-133.6c0-98.4,79.8-178.2,178.2-178.2c53.2,0,101,23.3,133.6,60.3V344.4c0-24.8-19.6-44.9-44.6-44.9H54.6C30,299.5,10,319.5,10,344.4z"/></g></g><g></g><g></g><g></g><g></g><g></g><g></g><g></g><g></g><g></g><g></g><g></g><g></g><g></g><g></g><g></g></g>
</svg>